<svg xmlns="http://www.w3.org/2000/svg" width="12.318" height="12.233" viewBox="0 0 12.318 12.233"><defs><style>.a{fill:#0f55fb;}</style></defs><g transform="translate(0 0)"><path class="a" d="M170.4,240.13v4.451h5.164v-5.164h-4.451A.713.713,0,0,0,170.4,240.13Z" transform="translate(-170.398 -239.417)"/><path class="a" d="M224.923,239.417h-4.451v5.164h5.164V240.13A.713.713,0,0,0,224.923,239.417Z" transform="translate(-213.318 -239.417)"/><path class="a" d="M170.4,293.349a.713.713,0,0,0,.713.713h4.451V288.9H170.4Z" transform="translate(-170.398 -281.829)"/><path class="a" d="M220.472,294.062h4.451a.713.713,0,0,0,.713-.713V288.9h-5.164Z" transform="translate(-213.318 -281.829)"/></g></svg>