<?xml version="1.0" standalone="no"?>
<!DOCTYPE svg PUBLIC "-//W3C//DTD SVG 20010904//EN"
 "http://www.w3.org/TR/2001/REC-SVG-20010904/DTD/svg10.dtd">
<svg version="1.0" xmlns="http://www.w3.org/2000/svg"
 width="119.000000pt" height="119.000000pt" viewBox="0 0 119.000000 119.000000"
 preserveAspectRatio="xMidYMid meet">
<metadata>
Created by potrace 1.14, written by Peter Selinger 2001-2017
</metadata>
<g transform="translate(0.000000,119.000000) scale(0.100000,-0.100000)"
fill="#000000" stroke="none">
<path d="M590 1187 c-3 -3 -40 -7 -82 -11 -111 -9 -162 -17 -171 -26 -5 -4
-10 -20 -13 -36 -2 -16 -6 -40 -8 -54 -3 -14 -5 -33 -5 -42 -1 -10 -18 -25
-44 -37 -72 -33 -100 -80 -111 -186 -4 -33 -11 -87 -16 -120 -5 -33 -11 -78
-14 -100 -3 -22 -11 -74 -16 -115 -6 -41 -13 -93 -16 -115 -3 -22 -7 -50 -9
-61 -3 -12 -8 -49 -11 -83 -8 -80 18 -137 76 -170 40 -22 46 -23 388 -23 191
-1 358 2 372 7 35 10 88 63 99 99 6 17 13 51 16 76 3 25 8 56 10 70 2 14 7 50
11 80 4 30 8 64 9 75 2 11 11 74 20 140 9 66 18 131 21 145 16 92 16 167 -1
200 -42 81 -73 91 -285 92 -96 1 -178 2 -181 4 -4 2 -3 21 2 41 31 130 30 147
-6 151 -17 2 -33 1 -35 -1z"/>
</g>
</svg>
