<svg xmlns="http://www.w3.org/2000/svg" width="600" height="465.101" viewBox="0 0 600 465.101">
  <g id="Group_31" data-name="Group 31" transform="translate(683.661 -465.007)">
    <path id="Path_8" data-name="Path 8" d="M-630.7,889.829h448.79s35.446-183.635-5.633-210.838-86.627,42.074-86.627,42.074,37.156-198.217-39.14-216.528-151.066,35.86-170.9,100.71-17.548,106.814-17.548,106.814-61.882-47.523-96.9-23.652C-665.8,734.187-630.7,889.829-630.7,889.829Z" transform="translate(34.272 28.116)" fill="#f5f0db"/>
    <g id="Group_17" data-name="Group 17" transform="translate(-683.661 508.084)">
      <path id="Path_9" data-name="Path 9" d="M-655.8,714.239l27.234-66.529,8.559,2.723,1.556-16.341,66.529-1.167-2.334,80.535Z" transform="translate(705.467 -376.665)" fill="#bb8f90"/>
      <path id="Path_10" data-name="Path 10" d="M-656.519,651.459l-2.334-75.478,9.727-1.556,9.726,1.167.389-5.836,18.286-.778,1.167,8.559h15.951l1.167-8.559,63.028,1.167-4.669,82.091Z" transform="translate(703.076 -426.712)" fill="#bb8f90"/>
      <path id="Path_11" data-name="Path 11" d="M-657.429,590.767l-6.225-81.7,15.173-2.723,40.851,6.614,1.167,11.672,36.961,1.167.389,64.584Z" transform="translate(699.318 -475.735)" fill="#bb8f90"/>
      <path id="Path_12" data-name="Path 12" d="M-565.7,490.045l-18.675,408.772-6.744-2.075,14.006-406.7Z" transform="translate(756.084 -488.489)" fill="#0f55fb"/>
      <g id="Group_11" data-name="Group 11" transform="translate(0 111.271)">
        <path id="Path_13" data-name="Path 13" d="M-678.993,564.3l-1.554-10.9H-488.09l-195.571-1.815Z" transform="translate(683.661 -551.591)" fill="#ffe091"/>
        <path id="Path_14" data-name="Path 14" d="M-489.456,552.609V560.4l-59.932.975-11.611.183-6.141.107-87.589,1.432-6.065.091-19.566.32-1.554-10.9Z" transform="translate(685.027 -550.794)" fill="#f7a628"/>
        <path id="Path_15" data-name="Path 15" d="M-663.868,563.093l-6.065.091-.3-10.575h6.171Z" transform="translate(694.166 -550.794)" fill="#db7318"/>
        <path id="Path_16" data-name="Path 16" d="M-611,552.609l-.35,8.945-6.141.107-.091-9.052Z" transform="translate(735.377 -550.794)" fill="#db7318"/>
        <path id="Path_17" data-name="Path 17" d="M-547.64,552.609V560.4l-59.932.975.427-8.762Z" transform="translate(743.211 -550.794)" fill="#db7318"/>
      </g>
      <g id="Group_12" data-name="Group 12" transform="translate(4.93 222.023)">
        <path id="Path_18" data-name="Path 18" d="M-676.228,626.429l-1.554-10.9h187.528L-680.9,613.72Z" transform="translate(680.895 -613.72)" fill="#ffe091"/>
        <path id="Path_19" data-name="Path 19" d="M-491.621,614.737v7.787l-59.932.975-11.611.183-6.141.106-82.659,1.432-6.065.091-19.566.32-1.554-10.9Z" transform="translate(682.262 -612.923)" fill="#f7a628"/>
        <path id="Path_20" data-name="Path 20" d="M-661.1,625.221l-6.065.091-.3-10.575h6.171Z" transform="translate(691.401 -612.923)" fill="#db7318"/>
        <path id="Path_21" data-name="Path 21" d="M-611,614.737l-.35,8.945-6.141.106-.091-9.051Z" transform="translate(730.447 -612.923)" fill="#db7318"/>
        <path id="Path_22" data-name="Path 22" d="M-547.64,614.737v7.787l-59.932.975.427-8.762Z" transform="translate(738.281 -612.923)" fill="#db7318"/>
      </g>
      <g id="Group_13" data-name="Group 13" transform="translate(9.388 332.775)">
        <path id="Path_23" data-name="Path 23" d="M-673.8,688.558l-1.529-10.9h180l-183.067-1.815Z" transform="translate(678.394 -675.848)" fill="#ffe091"/>
        <path id="Path_24" data-name="Path 24" d="M-496.672,676.866v7.787l-58.952.975-11.421.183-6.041.107-76.85,1.432-5.966.091-19.246.32-1.529-10.9Z" transform="translate(679.739 -675.051)" fill="#f7a628"/>
        <path id="Path_25" data-name="Path 25" d="M-658.925,687.35l-5.966.091-.3-10.575h6.071Z" transform="translate(688.728 -675.051)" fill="#db7318"/>
        <path id="Path_26" data-name="Path 26" d="M-612.141,676.866l-.345,8.945-6.041.107-.09-9.052Z" transform="translate(725.179 -675.051)" fill="#db7318"/>
        <path id="Path_27" data-name="Path 27" d="M-549.818,676.866v7.787l-58.952.975.42-8.762Z" transform="translate(732.885 -675.051)" fill="#db7318"/>
      </g>
      <g id="Group_14" data-name="Group 14" transform="translate(8.812)">
        <path id="Path_28" data-name="Path 28" d="M-654.855,899.492h-7.771l-11.734-299.369-2.469-62.8-1.89-48.153h8.823l2.393,65.265,1.508,41.082Z" transform="translate(678.717 -489.171)" fill="#0f55fb"/>
        <path id="Path_29" data-name="Path 29" d="M-658.723,899.5l-15.044-410.328h4.235l14.44,410.328Z" transform="translate(682.592 -489.172)" fill="#0b50d8"/>
        <path id="Path_30" data-name="Path 30" d="M-673.767,489.172l92.337,1.038-1.037,5.706-89.224,1.556Z" transform="translate(682.592 -489.172)" fill="#0b50d8"/>
        <path id="Path_31" data-name="Path 31" d="M-665.328,723.224h76.256l-2.075-4.669-72.625-4.15Z" transform="translate(689.197 -312.896)" fill="#0b50d8"/>
        <path id="Path_32" data-name="Path 32" d="M-668.128,537.87l.005.061c1.105,12.65,1.018,25.388,1.433,38.07q.024.749.05,1.5c-.046-.594-.107-1.2-.184-1.813-.151-1.478-.365-2.956-.61-4.435a7.863,7.863,0,0,0-1.324-3.7,8.408,8.408,0,0,0-4.114-2.362,1.2,1.2,0,0,0-1.112,0,1.138,1.138,0,0,0-.335.914c-.3,4.724-.6,9.464-.87,14.186l-2.469-62.8c.046-.991.107-1.98.169-2.972q.409,9.394,1.371,18.759a19.812,19.812,0,0,1,.275,2.8,5.953,5.953,0,0,0,.045,1.037,6.792,6.792,0,0,0,.549,1.89,6.87,6.87,0,0,0,4.446,3.838.971.971,0,0,0,1.237-.551,9.974,9.974,0,0,0,.381-1.979q.412-2.366.827-4.735a4.988,4.988,0,0,0,.123,1.152Q-668.179,537.3-668.128,537.87Z" transform="translate(679.547 -469.335)" fill="#dedef0"/>
        <path id="Path_33" data-name="Path 33" d="M-673.155,632.719a35.7,35.7,0,0,1,.713,9.181,30.735,30.735,0,0,0,.906,9.156,10.886,10.886,0,0,0,5.621,6.967c.292.458.41.324.954.333q.326-3.682.651-7.364c.308,9.079.923,18.539,1.23,27.618.414-2.968-1.722-5.172-4.189-6.872a1.965,1.965,0,0,0-1.57-.451c-.676.189-1,.941-1.21,1.61a29.057,29.057,0,0,0-1.223,6.287C-671.927,663.557-672.5,648.346-673.155,632.719Z" transform="translate(683.071 -376.827)" fill="#dedef0"/>
      </g>
      <g id="Group_15" data-name="Group 15" transform="translate(105.523)">
        <path id="Path_34" data-name="Path 34" d="M-614.441,489.172-616.516,899.5H-624.3l1.556-410.328Z" transform="translate(624.598 -489.172)" fill="#0f55fb"/>
        <path id="Path_35" data-name="Path 35" d="M-619.932,899.5l2.075-410.328h4.669L-616.56,899.5Z" transform="translate(628.014 -489.172)" fill="#0b50d8"/>
        <path id="Path_36" data-name="Path 36" d="M-618.768,489.172l74.7,1.556-1.556,5.188-70.549,2.594Z" transform="translate(628.925 -489.172)" fill="#0b50d8"/>
        <path id="Path_37" data-name="Path 37" d="M-617.243,723.224h54.728v-5.187l-56.543-3.631Z" transform="translate(628.697 -312.896)" fill="#0b50d8"/>
        <path id="Path_38" data-name="Path 38" d="M-623.75,547.807q.07,4.645.57,9.266a17.419,17.419,0,0,0,1.67,5.822,2.614,2.614,0,0,0,.781,1.063,12.748,12.748,0,0,0,3.917,2.007c.56-3.207.873-6.41,1.433-9.617-.266,11.325-.045,22.934-.312,34.261a10.851,10.851,0,0,0-4.733-10.405,24.177,24.177,0,0,0-2.64-.982q-.241,3.5-.483,6.995C-623.962,572.994-624.028,561.032-623.75,547.807Z" transform="translate(624.894 -443.282)" fill="#dedef0"/>
        <path id="Path_39" data-name="Path 39" d="M-623.45,652.728a15.939,15.939,0,0,0,1.6,8.587,2.192,2.192,0,0,0,.88,1.1c1.262.923,2.535,1.831,3.8,2.747.519-1.9,1.044-4.072,1.563-5.974.144,8.385.3,17.035-.1,25.413-.6-1.489-1.458-2.669-2.059-4.157s-2.307-2.79-3.742-2.071c-1.647.822-1.41,2.947-1.521,4.5q-.115,1.577-.3,3.15c-.25,2.052-.387,4.082-.834,6.1C-624.841,678.738-624.279,666.107-623.45,652.728Z" transform="translate(624.466 -361.167)" fill="#dedef0"/>
      </g>
      <g id="Group_16" data-name="Group 16" transform="translate(35.665 30.606)">
        <path id="Path_40" data-name="Path 40" d="M-663.654,509.065c.777,1.945,7,73.532,7,73.532h8.949l-.779-76.256Z" transform="translate(663.654 -506.341)" fill="#d5afab"/>
        <path id="Path_41" data-name="Path 41" d="M-652.087,510.051l1.556,69.642h5.447l1.556-69.253Z" transform="translate(672.707 -503.437)" fill="#d5afab"/>
        <path id="Path_42" data-name="Path 42" d="M-644.23,518.107c0,1.168,2.333,56.8,2.333,56.8h8.56l.389-58.749Z" transform="translate(678.856 -498.655)" fill="#d5afab"/>
        <path id="Path_43" data-name="Path 43" d="M-634.627,517.377l.778,57.192h4.28l.389-57.97Z" transform="translate(686.371 -498.313)" fill="#d5afab"/>
      </g>
      <path id="Path_44" data-name="Path 44" d="M-658.853,573.59l4.669,66.14,5.836-.389-.778-67.307Z" transform="translate(703.076 -424.321)" fill="#d5afab"/>
      <path id="Path_45" data-name="Path 45" d="M-647.722,569.586v72.365l8.948-.389,3.5-72.365Z" transform="translate(711.787 -426.542)" fill="#d5afab"/>
      <path id="Path_46" data-name="Path 46" d="M-638.774,576.181l2.723,60.3h3.891l1.556-60.3Z" transform="translate(718.791 -421.076)" fill="#d5afab"/>
      <path id="Path_47" data-name="Path 47" d="M-632.008,579.341l4.28,55.636,4.669-.778V576.617Z" transform="translate(724.086 -420.734)" fill="#d5afab"/>
      <path id="Path_48" data-name="Path 48" d="M-630.271,641.219l4.669,6.614L-648.557,698.8l-5.058-1.167Z" transform="translate(707.175 -370.174)" fill="#d5afab"/>
      <path id="Path_49" data-name="Path 49" d="M-633.821,633.922l-2.334,70.031h12.839l.778-70.809Z" transform="translate(720.84 -376.494)" fill="#d5afab"/>
    </g>
    <g id="Group_18" data-name="Group 18" transform="translate(-536.749 600.499)">
      <path id="Path_50" data-name="Path 50" d="M-520.961,729.056a72.071,72.071,0,0,1,10.922,14.1h-24.754c2.294-5.1,5.189-10.026,11.293-14.1,2.039-10.564,3.736-21.4,4.875-32.7.3-2.733.542-5.494.756-8.284l13.66-.227A160.375,160.375,0,0,0-520.961,729.056Z" transform="translate(653.259 -426.096)" fill="#0b50d8"/>
      <path id="Path_51" data-name="Path 51" d="M-427.517,729.056a72.009,72.009,0,0,0-10.924,14.1h24.755c-2.3-5.1-5.191-10.026-11.293-14.1-2.039-10.564-3.737-21.4-4.877-32.7-.3-2.733-.542-5.494-.756-8.284l-13.66-.227A160.442,160.442,0,0,1-427.517,729.056Z" transform="translate(724.104 -426.096)" fill="#0b50d8"/>
      <path id="Path_52" data-name="Path 52" d="M-435.3,744.469h-24.757a74.752,74.752,0,0,1,10.922-14.582,163.451,163.451,0,0,0-12.6-34.649q-1.971-4.011-4.154-7.979l13.657.225c.223,2.9.464,5.753.761,8.576,1.136,11.683,2.84,22.889,4.872,33.827C-440.485,734.1-437.6,739.194-435.3,744.469Z" transform="translate(707.188 -426.556)" fill="#0b50d8"/>
      <path id="Path_53" data-name="Path 53" d="M-568.876,729.884a75.882,75.882,0,0,1,11.445,14.881h-25.938c2.4-5.38,5.437-10.58,11.833-14.881,2.136-11.147,3.915-22.577,5.109-34.5.314-2.884.569-5.8.791-8.742l14.315-.239A169.877,169.877,0,0,0-568.876,729.884Z" transform="translate(615.241 -427.225)" fill="#0b50d8"/>
      <path id="Path_54" data-name="Path 54" d="M-264.454,581.723c-.016.061-.03.134-.045.194q-1.011,5-2.032,10.25c-6.127,31.332-12.79,67.908-18.782,97.894-6.619,44.256-10.817,77.083-17.286,114.854q-21.023.021-42.076-.014-27.274-.046-54.6-.121-10.084-.043-20.185-.073-59.3-.179-118.558-.3h-13.821c-4.706,0-9.4.014-14.1.014A226.568,226.568,0,0,1-601.214,680.56v-.166c41.821-5.228,83.447-4.765,124.7,3.6.627.12,1.269.255,1.9.389-.014-.134-.045-.253-.059-.389-5.991-38.726-1.524-78.5,11.489-115.465,27.955-18.452,60.647-28.344,94.115-27.461A166.209,166.209,0,0,1-290,563.718C-281.04,568.963-272.059,574.551-264.454,581.723Z" transform="translate(601.261 -541.014)" fill="#f7a628"/>
      <path id="Path_55" data-name="Path 55" d="M-429.773,723.754q-10.084-.043-20.185-.073a418.727,418.727,0,0,1-23.591-51.771c-1.988-.15-3.975-.314-5.963-.479-16.12-1.419-32.2-3.571-48.126-6.469-7.111-1.285-14.7-2.226-21.545-4.587-4.2-1.449-9.518-3.7-12.325-7.321-3.5-4.5,6.259-4.631,8.56-4.975q11.79-1.792,23.682-2.674a315.352,315.352,0,0,1,47.363.059q11.768.9,23.427,2.69,5.9.9,11.744,2.018c1.913.373,3.826.761,5.722,1.164.583.12,5.619.866,5.694,1.255A332.251,332.251,0,0,1-429.773,723.754Z" transform="translate(631.764 -459.988)" fill="#db7318"/>
      <path id="Path_56" data-name="Path 56" d="M-470.054,630.307c-1.988,2.929-5.453,4.572-8.949,5.125a39.16,39.16,0,0,1-10.564-.255c-24.937-2.9-50.695-3.153-74.869-9.892-12.625-3.526-23.684-3.9-36.786-4.421V620.7c41.821-5.228,83.447-4.765,124.7,3.6Q-473.162,627.169-470.054,630.307Z" transform="translate(601.268 -481.319)" fill="#ffe091"/>
      <path id="Path_57" data-name="Path 57" d="M-556.338,679.07c-.9,20.723-.433,42.06,2.765,62.663h-13.821c0-2.091.089-1.808.178-3.975A366.527,366.527,0,0,0-581.35,621.71a747.681,747.681,0,0,1,91.277,1.913,149.67,149.67,0,0,1,11.789,39.863c26.731,2.943,53.265,6.619,79.727,11.355A546.5,546.5,0,0,0-556.338,679.07Z" transform="translate(616.821 -478.34)" fill="#db7318"/>
      <path id="Path_58" data-name="Path 58" d="M-528.408,654.831A21.009,21.009,0,0,0-504,658.038a27.12,27.12,0,0,0,10.282-11.393A74.651,74.651,0,0,0-488.529,632c1.07,10.152,10.972,15.4,21.167,15.956s20.023-4.924,26.814-12.546,10.961-17.2,14.407-26.807,6.305-19.484,10.972-28.565c-2.781,14.291-.786,28.474,3.776,42.3,3.344,10.134,8.031,15.373,16.951,20.862a160.377,160.377,0,0,0,15.2,8.257q5.236,2.487,10.642,4.592c-1.264-.472-3.195-.3-4.544-.424l-4.733-.444A79.016,79.016,0,0,1-387,654.25c-1.772-.38-3.3-1.385-5.1-1.683a61.621,61.621,0,0,0-8.979-.5c-6.792-.116-13.956.123-20.438,2.367-5.264,18.242-6.681,27.777-7.918,46.743-.357,5.457-1.528,33.394-.474,41.25a219.376,219.376,0,0,0-7.157-33.558c-21.93-1.234-44.274-4.886-66.205-6.12-5.788-.324-11.792-.709-16.891-3.472-6.788-3.678-10.883-11.117-12.373-18.691S-529.171,662.514-528.408,654.831Z" transform="translate(654.807 -510.468)" fill="#db7318"/>
      <path id="Path_59" data-name="Path 59" d="M-318.865,581.723c-.016.061-.03.134-.045.194q-1.011,5-2.032,10.25c-6.052-1.465-11.819-4.364-17.183-7.532-16.742-9.887-32.622-23.613-51.338-30.121-18.459-6.419-38.6-7.46-57.854-4.681a223.987,223.987,0,0,0-37.361,9.159c-5.594,1.826-11.106,3.9-16.734,5.578-3.3.986-8.58,1.927-9.9,5.678A312.452,312.452,0,0,0-528.7,685.341c-.135-.449-.255-.9-.389-1.346-5.991-38.726-1.524-78.5,11.489-115.465,27.955-18.452,60.647-28.344,94.115-27.461a166.209,166.209,0,0,1,79.069,22.65C-335.451,568.963-326.47,574.551-318.865,581.723Z" transform="translate(655.672 -541.014)" fill="#ffe091"/>
      <path id="Path_60" data-name="Path 60" d="M-377.136,564.029c-6.665,33.364-14.151,74.826-20.814,108.144-6.619,44.256-10.817,77.083-17.286,114.854q-21.023.021-42.076-.014,11.789-57.621,20.245-115.84a139.094,139.094,0,0,1,24.34,3.137c-1.016-2.54-3.139-1.626-4.171-4.166,5.036-35.307,9.444-71.049,18.992-105.383A134.781,134.781,0,0,1-377.136,564.029Z" transform="translate(713.898 -523.125)" fill="#db7318"/>
      <path id="Path_61" data-name="Path 61" d="M-470.378,623.5c15.933-.426,30.829.453,43.537,4.08l24.34,3.137s-3.408-4.166-14.471-6.455-20.6-5.341-32.424-4.578A92.4,92.4,0,0,0-470.378,623.5Z" transform="translate(703.672 -479.534)" fill="#ffe091"/>
      <path id="Path_62" data-name="Path 62" d="M-441.455,554.521c10.266,3.3,18.5,11.473,23.527,21.016s7.106,20.384,7.867,31.141a138.785,138.785,0,0,1-3.692,42.96c-1.326,5.369-3.1,10.879-6.952,14.846-4.79,4.933-12.054,6.662-18.928,6.7-16.448.1-32.49-8.532-42.288-21.743s-13.438-30.576-10.787-46.809a72.641,72.641,0,0,1,12.625-30.143c2.843-4,6.154-7.651,9.254-11.45,2.781-3.41,7.134-5.56,11.288-6.776A31.077,31.077,0,0,1-441.455,554.521Z" transform="translate(685.539 -531.597)" fill="#db7318"/>
      <path id="Path_63" data-name="Path 63" d="M-569.43,740.343c-.358.166-.731.33-1.105.479h-12.833c2.4-5.38,5.437-10.58,11.833-14.881,2.136-11.147,3.915-22.577,5.109-34.5,1.48.553,2.943,1.135,4.423,1.688-3.107,11.07-5.9,21.709-8.173,32.975C-571.074,730.484-568.817,735.906-569.43,740.343Z" transform="translate(615.241 -423.282)" fill="#0f55fb"/>
      <path id="Path_64" data-name="Path 64" d="M-579.793,722.708c2.011,1.054,3.811-1.387,4.531-2.968.177-.383,1.715-7.787.7-7.507a7.291,7.291,0,0,0-4.171,3.12c-.41.645-.829,1.239-1.273,1.857C-581.073,718.692-581.709,721.706-579.793,722.708Z" transform="translate(617.077 -407.016)" fill="#dedef0"/>
      <path id="Path_65" data-name="Path 65" d="M-461.882,740.966a74.75,74.75,0,0,1,10.922-14.582,163.452,163.452,0,0,0-12.6-34.649,36.423,36.423,0,0,1,6.918,1.36c2.36,11.145,4.407,22.65,6.769,33.781a25.962,25.962,0,0,1,4.392,14.09Z" transform="translate(709.011 -423.053)" fill="#0f55fb"/>
      <path id="Path_66" data-name="Path 66" d="M-459.5,719.388a2.031,2.031,0,0,0-.214,1.148,1.445,1.445,0,0,0,1.062,1.02,4.253,4.253,0,0,0,1.54.055c1.191-.1,2.6-.351,3.1-1.44a3.436,3.436,0,0,0,.21-1.382,24.092,24.092,0,0,0-.105-3.168c-.077-.651-.148-1.424-.879-1.647-1.517-.462-2.592,1.38-3.209,2.412A22.8,22.8,0,0,0-459.5,719.388Z" transform="translate(712.005 -405.705)" fill="#dedef0"/>
      <path id="Path_67" data-name="Path 67" d="M-601.2,619.2c-.939,49.226,12.423,89.545,35.277,124.027-19.213-38.209-32.9-78.47-30.535-123.255Z" transform="translate(601.248 -479.821)" fill="#ffe091"/>
    </g>
    <g id="Group_24" data-name="Group 24" transform="translate(-514.339 560.128)">
      <path id="Path_68" data-name="Path 68" d="M-512.673,619.133a49.691,49.691,0,0,1-9.487-1.419,74,74,0,0,1-16.974-6.8c-.941.433-2-.656-1.988-1.7a5.236,5.236,0,0,1,1.316-2.765c1.255-1.733,1.18-3.451,1.241-5.528a107.3,107.3,0,0,1,7.052-34.753c6.888,3.287,13.268,8.337,16.942,15.045a14.963,14.963,0,0,1,.763,1.569c2.854,6.439,2.644,14.329,2.9,21.381a24.959,24.959,0,0,1-2.376,11.475C-512.09,616.295-512.09,617.892-512.673,619.133Z" transform="translate(625.896 -480.957)" fill="#f9dec3"/>
      <path id="Path_69" data-name="Path 69" d="M-520.264,611.839a49.684,49.684,0,0,1-9.487-1.419,2.474,2.474,0,0,0,1.553-2.346,6.074,6.074,0,0,0-1.478-3.362,7.8,7.8,0,0,1-1.7-3.287,7.224,7.224,0,0,1,.808-3.751q2.016-4.885,4.034-9.756c1.194-2.913,2.4-5.811,3.6-8.71.508-1.241,1.016-2.48,1.539-3.72,2.854,6.439,2.644,14.329,2.9,21.381a24.959,24.959,0,0,1-2.376,11.475C-519.681,609-519.681,610.6-520.264,611.839Z" transform="translate(633.487 -473.663)" fill="#eca17d"/>
      <path id="Path_70" data-name="Path 70" d="M-469.424,623.057c-2.968,2.46-5.965,4.765-8.931,7.223-29.1-7.191-58.966-1.164-88.731-4.683-1.271-2.036-5.245-.563-7.364.529a25.789,25.789,0,0,0-7.612,5.382,3.566,3.566,0,0,0-.709,1.314c-.449,1.406-1.041,2.77-1.392,4.205a19.685,19.685,0,0,0,.244,9.84,21.748,21.748,0,0,0,3.433,7.113c4.462,6.057,11.6,9.721,18.955,11.327s14.971,1.346,22.476.843c26.153-1.752,51.363.011,77.541-1.3a144.7,144.7,0,0,0,10.55-14.881c2.289-3.863,4.46-8.1,4.216-12.582-.273-4.981-3.637-9.461-7.97-11.931S-464.447,622.738-469.424,623.057Z" transform="translate(591.809 -436.519)" fill="#072a59"/>
      <path id="Path_71" data-name="Path 71" d="M-415.468,637.435a210.853,210.853,0,0,1-3.3,23.279,209.344,209.344,0,0,1-5.9,22.739c-.194.6-.389,1.2-.6,1.779.253,2.211,1.136,3.943.611,6.35a21.294,21.294,0,0,1-4.9,1.988c-24.428,8.113-56.164.836-81.146-8.92a6.394,6.394,0,0,1-3.3-3.811,15.2,15.2,0,0,1,5.319-5.856v-.044a184.1,184.1,0,0,1,1.494-22.681c.447-3.378,1.03-6.738,1.763-10.011a30.478,30.478,0,0,1-2.719-2.69,16.63,16.63,0,0,0-1.285-1.194,14.451,14.451,0,0,1,2.285-5.081q-2.329-2.219-4.482-4.573c-.838-.911-1.66-1.838-2.451-2.779a93.379,93.379,0,0,1-21.426-47.468,126.308,126.308,0,0,1,33.394-22.725,56.343,56.343,0,0,1,10.084-3.915c1.271-.3,2.556-.583,3.826-.822a42.884,42.884,0,0,1,10.295-.866,38.539,38.539,0,0,1,4.915.6c11.371,2.182,22.921,4.409,33.8,8.353a36.044,36.044,0,0,1,8.382,4.362,36.272,36.272,0,0,1,5.991,5.23,35.083,35.083,0,0,1,3.2,3.943c.464.658.972,1.227,1.48,1.838,1,1.18,1.075,3.034,1.374,4.5.761,3.84,1.433,7.694,1.988,11.58a210.611,210.611,0,0,1,1.956,23.158,1.349,1.349,0,0,1,.016.255A208.6,208.6,0,0,1-415.468,637.435Z" transform="translate(630.291 -493.537)" fill="#f9dec3"/>
      <path id="Path_72" data-name="Path 72" d="M-423.819,629.276a210.868,210.868,0,0,1-3.3,23.279,209.346,209.346,0,0,1-5.9,22.739c-.194.6-.389,1.2-.6,1.779.253,2.211,1.135,3.943.611,6.35a21.3,21.3,0,0,1-4.9,1.988c-24.428,8.113-56.164.836-81.146-8.92a6.394,6.394,0,0,1-3.3-3.811,15.2,15.2,0,0,1,5.319-5.856v-.044c6.664,6.186,15.882,9.173,24.966,9.861,9.592.717,19.185-.868,28.658-2.437q1.345-8.113,2.69-16.2-27.411-6.947-54.82-13.91c-.089-.03-.194-.044-.284-.075a23.745,23.745,0,0,0-1.854-12.7c.389.03.793.061,1.182.075a258.093,258.093,0,0,0,38.293-.3c-8.366-.433-16.808-.866-24.952-2.915a47.5,47.5,0,0,1-16.823-7.635,34.431,34.431,0,0,1-4.856-4.376c.85.508,1.643,1.045,2.4,1.6,3.662,2.631,6.6,5.469,11.25,6.366,2.376.447,5.992.433,8.4.613,8.74.642,17.256,3.407,26.027,3.81s18.5-2.2,23.2-9.607c3.018-4.753,3.465-10.625,4.034-16.211q.7-6.792,1.793-13.537c.4-2.451.836-4.886,1.314-7.321a27.4,27.4,0,0,0,.747-4.109,16.9,16.9,0,0,1,1.032-4.692.281.281,0,0,1,.029-.1,23.564,23.564,0,0,1,2.362-4.856,9.441,9.441,0,0,1,3.182-3.5c1.508-.806,2.793-2.15,4.243-3.093.538-.358,1.091-.7,1.644-1.014a35.082,35.082,0,0,1,3.2,3.943c.464.658.972,1.227,1.48,1.838,1,1.18,1.075,3.034,1.374,4.5.761,3.84,1.433,7.694,1.988,11.58a210.6,210.6,0,0,1,1.956,23.158,1.349,1.349,0,0,1,.016.255A208.6,208.6,0,0,1-423.819,629.276Z" transform="translate(638.642 -485.378)" fill="#eca17d"/>
      <path id="Path_73" data-name="Path 73" d="M-433.994,613.676a10.572,10.572,0,0,1-1.374-3.8c-.417-2.779.777-6.1.4-8.89a25.534,25.534,0,0,0-7.621-15c-4.123-3.945-10.937-5.289-16.361-7.066a67.353,67.353,0,0,0-24.907-3.228,27.188,27.188,0,0,1-27.162-19.08,70.822,70.822,0,0,1,13.94-6.5,38.539,38.539,0,0,1,4.915.6c11.371,2.182,22.921,4.409,33.8,8.354a36.041,36.041,0,0,1,8.382,4.362,37.255,37.255,0,0,1,9.189,9.173c.464.658.972,1.227,1.48,1.838,1,1.18,1.075,3.034,1.374,4.5.761,3.84,1.433,7.694,1.988,11.58A210.6,210.6,0,0,1-433.994,613.676Z" transform="translate(649.459 -493.519)" fill="#eca17d"/>
      <path id="Path_74" data-name="Path 74" d="M-508.218,653.785a64.353,64.353,0,0,1-4.811,17.363,9.827,9.827,0,0,1-1.613,2.808,3.836,3.836,0,0,1-2.838,1.374c-.613-1.6-1.21-3.72-1.824-5.334q-7.038-4.169-14.074-8.352c-2.5-1.48-4.991-2.974-7.5-4.453a15.652,15.652,0,0,0,.105-3.84c-.075-.447-.239-.881-.283-1.33a13.219,13.219,0,0,1,.642-4.378,29.19,29.19,0,0,1,3.6-8.382c.044-.073.105-.164.15-.239.014-.029.119-.029.269-.029.328,0,.866.014.852.014a16.528,16.528,0,0,1,2.271.18c.342.059.686.119,1.045.192a22.707,22.707,0,0,1,3.392,1,9.616,9.616,0,0,1,2.63,1.315,7.669,7.669,0,0,0,2.121,1.358c2.51.957,5.036,1.882,7.56,2.824C-512.775,647.271-510.5,650.513-508.218,653.785Z" transform="translate(625.922 -423.96)" fill="#f7aea4"/>
      <path id="Path_75" data-name="Path 75" d="M-532.109,645.01c-.194,2.6-.389,5.2-.583,7.785-.209,2.913-.433,5.826-.642,8.74-.014.164-.03.314-.045.478-2.5-1.48-4.991-2.973-7.5-4.453a15.652,15.652,0,0,0,.105-3.84c-.075-.447-.239-.881-.283-1.33a13.219,13.219,0,0,1,.642-4.378,29.189,29.189,0,0,1,3.6-8.382c.135-.089.269-.178.419-.267,1.075-.644,2.435-1.241,3.451-.494a2.4,2.4,0,0,1,.717.881C-531.5,641.23-532,643.592-532.109,645.01Z" transform="translate(625.922 -424.329)" fill="#ed6d67"/>
      <path id="Path_76" data-name="Path 76" d="M-474.4,567.218a60.452,60.452,0,0,1-7.2,12.954,50.69,50.69,0,0,1-3.467,4.334c-.6.686-1.225,1.36-1.866,2-2.929,2.943-6.41,5.633-10.505,6.32-5.095.868-10.384-1.613-13.716-5.558a19.759,19.759,0,0,1-2.763-4.318A28.328,28.328,0,0,1-516.471,573a64.055,64.055,0,0,1,.749-14.821c.433-2.735,2.868-3.676,5.243-4.558a37.061,37.061,0,0,1,11.252-2.166c5.856-.269,11.714.508,17.525,1.285,2.6.358,5.35.761,7.337,2.48C-471.094,558.014-473.141,564.006-474.4,567.218Z" transform="translate(645.067 -492.513)" fill="#ed6d67"/>
      <g id="Group_19" data-name="Group 19" transform="translate(102.277)">
        <path id="Path_77" data-name="Path 77" d="M-475.195,593.05a35.032,35.032,0,0,1-3.107,5.319,5.427,5.427,0,0,1-.6.688,14.494,14.494,0,0,1-4.228,2.838,38.526,38.526,0,0,1-6.979,2.407c-4.421,1.105-9.337.85-12.714-2.481a8.938,8.938,0,0,1-.792-.9,9.96,9.96,0,0,0-1.9-1.717c-1.628-1.346-3.257-2.72-4.842-4.109-.806-.7-1.583-1.4-2.374-2.123-.538-.492-1.016-1.061-1.51-1.6a28.325,28.325,0,0,1-4.137-5.649,29.193,29.193,0,0,1-2-4.482c-.267-.777-.492-1.569-.686-2.36a6.864,6.864,0,0,1-.255-1.21c-.029-.672-.059-1.346-.148-2.032-.075-.6-.18-1.2-.3-1.793-.061-.3-.134-.613-.209-.927a2.526,2.526,0,0,0-.166-.611c-.611-.583-1.209-1.21-1.763-1.852A22.923,22.923,0,0,1-527,565.724a4.683,4.683,0,0,1-.239-2.018c-.148-2.585-.373-5.155-.358-7.755a36.274,36.274,0,0,1,1.166-10.683,25.716,25.716,0,0,1,1.838-4.393c3.854-7.261,11.414-12.311,19.454-14.179a42.267,42.267,0,0,1,14.641-.567c.33.045.674.1,1,.178a19.284,19.284,0,0,1,9.592,4.961,26.792,26.792,0,0,1,3.72,4.676,40.483,40.483,0,0,1,2.765,4.8,30.421,30.421,0,0,1,2.852,7.663c.194,1.047.36,2.093.508,3.139.3,2.105.508,4.212.628,6.334C-468.74,569.667-469.8,582.338-475.195,593.05Z" transform="translate(534.206 -512.592)" fill="#f7aea4"/>
        <path id="Path_78" data-name="Path 78" d="M-477.222,592.8a35.032,35.032,0,0,1-3.107,5.319,5.427,5.427,0,0,1-.6.688,45.93,45.93,0,0,0,2.36-23.668,141,141,0,0,0-7.576-26.743,58.955,58.955,0,0,1-22.187,3.929c1.136,1.285,2.257,2.569,3.391,3.87A26.928,26.928,0,0,1-525,551.087a8.85,8.85,0,0,1,3.392-5.991c9.232-7.38,19.08-14.09,29.866-18.93a1.58,1.58,0,0,0,.225-.105,19.284,19.284,0,0,1,9.592,4.961,26.792,26.792,0,0,1,3.72,4.676,40.476,40.476,0,0,1,2.765,4.8,30.421,30.421,0,0,1,2.852,7.663c.194,1.047.36,2.093.508,3.139.3,2.105.508,4.212.627,6.334C-470.767,569.42-471.828,582.091-477.222,592.8Z" transform="translate(536.234 -512.345)" fill="#ed6d67"/>
        <path id="Path_79" data-name="Path 79" d="M-505.986,556.208a11.251,11.251,0,0,1-.458,1.517,14.2,14.2,0,0,1-2.046,3.59,4.864,4.864,0,0,1-4.417,2.2,5.923,5.923,0,0,1-3.8-2,4.981,4.981,0,0,1-1.057-1.36,1.8,1.8,0,0,1,.078-1.406,10.317,10.317,0,0,0,1.011-4.3c.073,1.259.121,2.5.167,3.758a2.834,2.834,0,0,0,2.874,2.663,3.673,3.673,0,0,0,3.225-1.9c.474-.845.649-1.895,1.378-2.533C-508.2,555.713-507.085,556.094-505.986,556.208Z" transform="translate(541.815 -490.128)" fill="#d8372f"/>
        <path id="Path_80" data-name="Path 80" d="M-497.66,560.3a50.091,50.091,0,0,1-17.612,4.7,42.234,42.234,0,0,0,15.65-5.6c-.449-.53-1.075-1.063-1.524-1.592a5.056,5.056,0,0,1,5.125,3.134C-496.455,560.829-497.226,560.429-497.66,560.3Z" transform="translate(543.849 -487.511)" fill="#d8372f"/>
        <path id="Path_81" data-name="Path 81" d="M-498.93,550.829a6.2,6.2,0,0,1-1.128,1.53,6.682,6.682,0,0,1-5.191,1.977,6.536,6.536,0,0,1-3.275-1.268,6.167,6.167,0,0,1-.6-.494,6.269,6.269,0,0,1-.973-1.143,1.578,1.578,0,0,1-.2-.34,1.655,1.655,0,0,1,.217-1.56,3.766,3.766,0,0,1,1.7-1.221,5.541,5.541,0,0,1,.524-.216,14.459,14.459,0,0,1,3.94-.943,13.117,13.117,0,0,1,1.344-.077,18.769,18.769,0,0,1,2.936.248,2.1,2.1,0,0,1,.818.185,1.14,1.14,0,0,1,.387.865A4.15,4.15,0,0,1-498.93,550.829Z" transform="translate(547.656 -495.9)" fill="#fff8f0"/>
        <path id="Path_82" data-name="Path 82" d="M-513.5,551.885a5,5,0,0,1-.433,2.009,4.821,4.821,0,0,1-1.87,2.132,4.857,4.857,0,0,1-4.2.369,5.519,5.519,0,0,1-.54-.246,4.921,4.921,0,0,1-1.808-1.715,3.81,3.81,0,0,1-.725-1.947c.077-1,1.39-1.467,2.178-1.824.014,0,.03-.014.046-.014a10.917,10.917,0,0,1,2.7-.82,9.425,9.425,0,0,1,1.112-.123,9.648,9.648,0,0,1,1.638,0,1.819,1.819,0,0,1,1.2.308A2.59,2.59,0,0,1-513.5,551.885Z" transform="translate(537.739 -493.867)" fill="#fff8f0"/>
        <path id="Path_83" data-name="Path 83" d="M-500.831,552.324a6.682,6.682,0,0,1-5.191,1.977,6.536,6.536,0,0,1-3.275-1.268,8.451,8.451,0,0,1,.355-4.248,6.2,6.2,0,0,1,.308-.725,14.458,14.458,0,0,1,3.94-.943A7.2,7.2,0,0,1-500.831,552.324Z" transform="translate(548.429 -495.866)" fill="#30b8ea"/>
        <path id="Path_84" data-name="Path 84" d="M-514.857,553.878a4.822,4.822,0,0,1-1.87,2.132,4.857,4.857,0,0,1-4.2.369,4.657,4.657,0,0,1-.232-.494,12.619,12.619,0,0,1-.7-5.02c.016-.078.016-.155.032-.217.014,0,.03-.014.046-.014a10.919,10.919,0,0,1,2.7-.82,9.45,9.45,0,0,1,1.112-.123l.31.308a12.071,12.071,0,0,1,2.686,3.6C-514.934,553.693-514.887,553.786-514.857,553.878Z" transform="translate(538.663 -493.852)" fill="#30b8ea"/>
        <path id="Path_85" data-name="Path 85" d="M-465.956,558.409a6.089,6.089,0,0,1-.972,2.72,19.888,19.888,0,0,0-2.957,10.4,15.82,15.82,0,0,0-3.736.419c.718-.567,1.449-1.135,2.182-1.688a9.934,9.934,0,0,0-2.2-.808,95.53,95.53,0,0,0-6.485-23.1,29.572,29.572,0,0,1-10.653,2c.747.164,1.419.342,2.152.492a5.71,5.71,0,0,1-.314.688,8.38,8.38,0,0,1-2.569,2.988,15.811,15.811,0,0,1-4.228,2.121,29.09,29.09,0,0,1-7.815,1.585,26.74,26.74,0,0,1,5.933,1.838,27.585,27.585,0,0,1-18.768-.808,12.533,12.533,0,0,1-3.451,1.36,12.024,12.024,0,0,1-2.838.3c-.463,0-.941-.028-1.4-.075a4.906,4.906,0,0,1-1.3-.342,9.363,9.363,0,0,1-1.4-.658,8.833,8.833,0,0,1-2.465-2.062,9,9,0,0,1-2.046-6.125c.164-3.437,2.255-6.455,4.451-9.115,9.428-11.4,24.549-16.9,39.325-17.258a20.8,20.8,0,0,0,1.54-4.915,7.893,7.893,0,0,1,2.346,5.647,10.746,10.746,0,0,1,7.216-4.482,9.576,9.576,0,0,1-3.542,6.574,42.272,42.272,0,0,1,8.457,10.667A43.215,43.215,0,0,1-465.956,558.409Z" transform="translate(531.303 -518.367)" fill="#f7a628"/>
        <path id="Path_86" data-name="Path 86" d="M-516.136,551.138a20.692,20.692,0,0,0-2.467-5.088,2.3,2.3,0,0,0-1.378-1.152,3.253,3.253,0,0,0-2.234.961c-.437.358-.863.913-.517,1.472a3.628,3.628,0,0,0,1.529,1.077c.77.387,1.542.77,2.3,1.178Q-517.5,550.333-516.136,551.138Z" transform="translate(537.913 -497.616)" fill="#ed6d67"/>
        <path id="Path_87" data-name="Path 87" d="M-517.9,547.367a3.156,3.156,0,0,1-.833,1.651,9.77,9.77,0,0,1-3.995,2.184c-2.733.9-2.612-2.093-1.25-3.512a18.822,18.822,0,0,1,2.164-1.743c.645-.5,1.414-1.284,2.259-1.349C-518.074,544.48-517.7,546.247-517.9,547.367Z" transform="translate(536.302 -497.843)" fill="#974b1e"/>
        <path id="Path_88" data-name="Path 88" d="M-510,550.521l2.852-5a1.348,1.348,0,0,0,.246-1.175,1.294,1.294,0,0,0-.8-.577,13.977,13.977,0,0,0-2.44-.674c-.471-.08-1.095-.141-1.35.362a4.745,4.745,0,0,0-.1,2.218,11.089,11.089,0,0,0,.46,2.362A10.615,10.615,0,0,0-510,550.521Z" transform="translate(546.668 -499.058)" fill="#ed6d67"/>
        <path id="Path_89" data-name="Path 89" d="M-502.443,546.93c-2.742.217-5.761.815-7.942-.7a3.163,3.163,0,0,1-1.291-1.963c-.28-1.506.775-2.232,2.333-2.088a24.372,24.372,0,0,1,4.507.692,5.592,5.592,0,0,1,2.8,1.5C-501.534,544.98-501.191,546.832-502.443,546.93Z" transform="translate(546.63 -499.746)" fill="#974b1e"/>
        <path id="Path_90" data-name="Path 90" d="M-472.041,553.3a6.089,6.089,0,0,1-.972,2.72,19.889,19.889,0,0,0-2.957,10.4,15.813,15.813,0,0,0-3.736.419c.718-.567,1.449-1.135,2.182-1.688a9.931,9.931,0,0,0-2.2-.808,95.53,95.53,0,0,0-6.485-23.1,29.572,29.572,0,0,1-10.653,2c.747.164,1.419.342,2.152.492a5.707,5.707,0,0,1-.314.688,7.562,7.562,0,0,0-2.54.642c-2.613.971-4.9,1.793-7.53,2.72a21.783,21.783,0,0,1-18.438-2.077,44.9,44.9,0,0,0,24.31-1.421c1.075-.358,1.121-1.449,2-2.152q-10.42-1.591-20.843-3.2c8.008-1.061,15.928-1.51,23.905-.255a19.343,19.343,0,0,0,6.635-6.23,29.48,29.48,0,0,0-11.73-7.56,34.2,34.2,0,0,1,12.566,6.23c1.36-1.793,4.617-2.166,6.649-1.239a7.571,7.571,0,0,1,2.449,1.777A43.214,43.214,0,0,1-472.041,553.3Z" transform="translate(537.388 -513.257)" fill="#da770c"/>
        <path id="Path_91" data-name="Path 91" d="M-520.5,550.691l-.314-.034q-1.15-.128-2.287-.317a10.815,10.815,0,0,1-2.3-.579,7.791,7.791,0,0,1-3.4-2.562,8.771,8.771,0,0,1-.861-8.223,22.421,22.421,0,0,1,1.2-2.431,12.358,12.358,0,0,1,2.066-2.61,25.306,25.306,0,0,1,2.528-2.348,27.852,27.852,0,0,1,6.011-3.7,28.914,28.914,0,0,1,3.371-1.285q.866-.27,1.752-.487c.565-.139,1.207-.191,1.752-.371a59.542,59.542,0,0,0-9.493,4.059l3.344-.084a16.843,16.843,0,0,0-4.658,1.936,15.707,15.707,0,0,0-2.8,2.155,14.288,14.288,0,0,0-1.164,1.276,3.049,3.049,0,0,0-.5.676,1.828,1.828,0,0,0-.053.28c-.153.651-.417,1.284-.563,1.94a9.229,9.229,0,0,0,.567,6.241c.05.094.1.191.155.285a8.563,8.563,0,0,0,2.455,2.726c.2.141.447.2.661.326.283.169.567.341.858.5.581.321,1.182.617,1.8.884a22.265,22.265,0,0,0,3.854,1.271c.663.153,1.337.278,2.014.373a9.765,9.765,0,0,0,2.007.187c-1.228.1-2.464.148-3.7.144C-517.63,550.916-519.069,550.839-520.5,550.691Z" transform="translate(532.101 -512.593)" fill="#fbd6a4"/>
        <path id="Path_92" data-name="Path 92" d="M-493.112,541.538c.98-.767,2.3-1.385,3.408-.833,1.312.652,1.512,2.478,1.426,3.981a31.377,31.377,0,0,1-5.373,15.8c-.36.526-.936,1.105-1.512.859a1.445,1.445,0,0,1-.649-.881c-1.408-3.677-1.43-7.466-1.435-11.343A7.926,7.926,0,0,1-496.085,545,11.909,11.909,0,0,1-493.112,541.538Z" transform="translate(557.958 -501.049)" fill="#ed6d67"/>
        <path id="Path_93" data-name="Path 93" d="M-491.317,546.145q-.088-1.334-.176-2.667c-.011-.16-.078-.372-.239-.36a.312.312,0,0,0-.187.128,14.905,14.905,0,0,0-3.121,6.123,1.109,1.109,0,0,1,1.259.638,3.143,3.143,0,0,1,.207,1.513,4.732,4.732,0,0,1-.574,2.779,6.431,6.431,0,0,0,.007-2.777c-.073-.332-.259-.726-.6-.724a.729.729,0,0,0-.521.33,3.434,3.434,0,0,0-.8,1.783,12.239,12.239,0,0,1,4.105-11.029c-.034-.2.28-.271.453-.175a.745.745,0,0,1,.3.5A8.5,8.5,0,0,1-491.317,546.145Z" transform="translate(558.781 -500.132)" fill="#d8372f"/>
        <path id="Path_94" data-name="Path 94" d="M-494.75,542.548a8.028,8.028,0,0,0-1.706,7.5,21.408,21.408,0,0,1,5.466-7.959,1.832,1.832,0,0,0,.515-.633.59.59,0,0,0-.2-.727.824.824,0,0,0-.624.014,9.039,9.039,0,0,0-4.143,2.7Z" transform="translate(558.336 -500.912)" fill="#f7aea4"/>
      </g>
      <path id="Path_95" data-name="Path 95" d="M-485.818,572.021c-1.027,1.171-2.2,2.444-2.4,2.649-2.685,2.7-6.086,5.082-9.9,5.731-7.106,1.209-13.249-3.8-16.423-9.755a17.007,17.007,0,0,1-1.118-2.6c-.075-.226-.134-.506.036-.674.221-.219.592-.032.831.167a20.64,20.64,0,0,1,2.4,2.512c.358.421.722.836,1.086,1.251a2.048,2.048,0,0,1,.2.262,2.614,2.614,0,0,0,.576.781,6.852,6.852,0,0,0,2.285,1.234,8.873,8.873,0,0,0,2.2.4,17.926,17.926,0,0,0,5.5-.744,64.566,64.566,0,0,0,7.364-2.38,24.823,24.823,0,0,1,4.435-1.478,6.655,6.655,0,0,1,4.547.587A10.42,10.42,0,0,1-485.818,572.021Z" transform="translate(645.759 -480.087)" fill="#ed6d67"/>
      <path id="Path_96" data-name="Path 96" d="M-494.773,647.171c-2.826,3.437-3.84,8.532-5.066,12.716a49.253,49.253,0,0,0-2.061,11.953c-1.016-.508-1.152-1.988-2.287-1.971h-.059l-18.079.358c-4.228.089-8.457.164-12.685.253-1.061.016-2.121.03-3.168.061a34.776,34.776,0,0,0-5.647.836,113.619,113.619,0,0,1-15.09,1.585c-2.629.089-5.275.1-7.9.03-1.225-.046-2.451-.105-3.661-.18-.628-.03-1.239-.075-1.852-.12-.059-.014-.612-.014-.956-.061a.474.474,0,0,1-.255-.045,41,41,0,0,1-13.685-18.094c-2.8-7.277-1.3-15.734,2.4-22.591,7.068-3.407,15.823-6.17,23.668-5.961,11.862.33,21.887,8.712,32.81,13.343,9.1,3.854,15.764,6.872,29.494,8.4A11.839,11.839,0,0,0-494.773,647.171Z" transform="translate(588.677 -434.185)" fill="#0c458f"/>
      <path id="Path_97" data-name="Path 97" d="M-510.654,653.939l-18.079.358c-4.229.089-8.457.164-12.685.253-1.061.016-2.121.03-3.168.061a34.775,34.775,0,0,0-5.647.836,113.63,113.63,0,0,1-15.09,1.585c-2.629.089-5.275.1-7.9.03-1.225-.046-2.451-.105-3.661-.18-.628-.03-1.239-.075-1.852-.12-.059-.014-.611-.014-.956-.061a8.529,8.529,0,0,1-.791-.492c7.635-.957,14.268-5.589,21.59-7.919,10.25-3.273,21.336-1.882,32-.479,3.99.524,8.068,1.077,11.683,2.825A15.1,15.1,0,0,1-510.654,653.939Z" transform="translate(595.085 -418.256)" fill="#0a3673"/>
      <path id="Path_98" data-name="Path 98" d="M-441.282,619.652c-.358.881-.911,1.494-1.269,2.376a4.387,4.387,0,0,0-.464-1.3,5.71,5.71,0,0,0-.658-1,59.6,59.6,0,0,0-29.583,6.694c.134.731.075,1.194.194,1.913v.014a6.565,6.565,0,0,1-2.346-2.137,7.523,7.523,0,0,1,.164-2.465,136.729,136.729,0,0,1-2.046-21.648c-2.526-6.769-3.481-15-3.451-22.7,0-1.733.059-3.465.194-5.214.417-6.036,1.674-12.058,4.736-17.2.314.089.642.194.956.3.344.1.7.223,1.046.358a42.217,42.217,0,0,1,26.52,29.911c2.21,9.772.852,20.231,4.048,29.718a3.154,3.154,0,0,0,.105.344A5.08,5.08,0,0,1-441.282,619.652Z" transform="translate(673.152 -488.14)" fill="#f9dec3"/>
      <path id="Path_99" data-name="Path 99" d="M-443.325,617.276a4.374,4.374,0,0,1-3.212-.269,38.177,38.177,0,0,1-7.888-4.781,13.051,13.051,0,0,1-4.722-7.724c-.417-2.779.777-6.1.4-8.89a25.534,25.534,0,0,0-7.621-15c-3.615-3.451-9.279-4.915-14.268-6.425.417-6.036,1.674-12.058,4.736-17.2.314.089.642.194.956.3.344.1.7.223,1.046.358a42.217,42.217,0,0,1,26.52,29.911C-445.163,597.33-446.521,607.789-443.325,617.276Z" transform="translate(673.238 -488.14)" fill="#eca17d"/>
      <g id="Group_21" data-name="Group 21" transform="translate(137.8 131.548)">
        <path id="Path_100" data-name="Path 100" d="M-431.16,629.434c-19.1,8.851-38.644,12.978-59.574,14.418-.652.045-1.262.061-1.915.077a7.439,7.439,0,0,1-1.984-5.271,1.931,1.931,0,0,1,.715-1.546,18.069,18.069,0,0,1,5.535-3.268c7-3.146,11.145-5.5,17.686-11.651,1.556-1.462,7.872-10.473,12.127-10.783a56.857,56.857,0,0,1-3.3-8.33,16.243,16.243,0,0,1-.455-1.617c-.048-.332.018.244-.014-.132a17.981,17.981,0,0,0-.2-1.866c.706-.4,1.346-.779,2.08-1.123a64.059,64.059,0,0,1,27.656-6.18,5.065,5.065,0,0,1,.651,1,67.087,67.087,0,0,1,2.465,8.674C-427.981,611.433-428.063,620.125-431.16,629.434Z" transform="translate(524.477 -592.161)" fill="#f7aea4"/>
        <path id="Path_101" data-name="Path 101" d="M-432.861,629.434c-19.1,8.853-38.632,12.976-59.585,14.418a4.868,4.868,0,0,1,.257-2.325c1.3-2.546,4.341-4.241,7.077-2.831,5.5-2.064,10.865-4.127,16.436-6.072,8.89-3.1,17.217-6.154,23.755-13.229a19.486,19.486,0,0,0-5.617-7.578,38.144,38.144,0,0,1,5.936,2.94c.46.3.758.494,1.294.264a4.111,4.111,0,0,0,2.282-2.351,9.7,9.7,0,0,0,.33-3.813c.009-1.328-.059-2.97-.148-4.31-.045-.677-.182-1.62-.219-2.15s-.084-1.92-.307-2.014a34.31,34.31,0,0,0-20.8-2.048,64.293,64.293,0,0,1,27.665-6.173,5.137,5.137,0,0,1,.649,1,67.082,67.082,0,0,1,2.465,8.674C-429.683,611.433-429.765,620.125-432.861,629.434Z" transform="translate(526.179 -592.161)" fill="#ed6d67"/>
        <g id="Group_20" data-name="Group 20" transform="translate(0 33.09)">
          <path id="Path_102" data-name="Path 102" d="M-471.791,623.631a1.081,1.081,0,0,1,.005.2c-.184,2.51-2.257,4.357-4.291,5.389s-3.547.082-5.257-.806c-.3-.157-.5-.455-.711-.54s-.513-.627-.567-.549c-.471.7-.929,1.672-1.43,2.46-.168.264-.2.542-.389.841a3.3,3.3,0,0,1-.9.9,1.516,1.516,0,0,1-.991.267c-.319-.062-.232.1-.56-.194a1.839,1.839,0,0,1-.551-1.474,17.672,17.672,0,0,1,.141-2.537,27.946,27.946,0,0,1,.681-3.221c.061-.212.692-1.442.515-1.774s-1.011-.315-1.28-.189-.36.715-.431.872a33.441,33.441,0,0,0-2.022,5.708,6.128,6.128,0,0,1-.989,2.364,2.2,2.2,0,0,1-.66.528,2.2,2.2,0,0,1-.692.251,1.99,1.99,0,0,1-.749-.034,3.8,3.8,0,0,1-1.264-.7c-.091-.134-.116.086-.187.132a10.576,10.576,0,0,1-1.533.832c-.045.02-.064.059-.116.053a6.012,6.012,0,0,1-2.569-.677c.082-3.728,1.045-7.519,1.447-11.186.045-.412.073-.8.082-1.036s.094-.25.032-.332a3.71,3.71,0,0,0-1.722-1.136,17.093,17.093,0,0,0-3.649,3.088,5.575,5.575,0,0,1-.645.631,2.235,2.235,0,0,0-.7.816A26.211,26.211,0,0,0-504.8,626.4a10.752,10.752,0,0,1-1.554,3.105c-.39.549.127-.13-.116.159a2.448,2.448,0,0,1-.874.74,3.227,3.227,0,0,1-4.032-1.4,25.956,25.956,0,0,0,1.711-5.025,32.652,32.652,0,0,1,2.524-6.453,12.477,12.477,0,0,1,1.4-2.168,5.3,5.3,0,0,1,.973-1.025,8.061,8.061,0,0,0,.734-.667,11.418,11.418,0,0,1,1.651-1.326,10.914,10.914,0,0,1,3.934-1.54,1.835,1.835,0,0,1,.754-.05,3.61,3.61,0,0,1,.654.3c.264.119,1.02.517,1.2.6s.086.048.119.066c.474.241,1.013.524,1.43.743s.674.34,1.055.553a6.225,6.225,0,0,1,3.4-1.107,5.771,5.771,0,0,1,3.023,1.18,2.221,2.221,0,0,1,1.866-.2,5.42,5.42,0,0,1,2.38,1.674,9.156,9.156,0,0,0,.882.816c.178.141.13.152.2.155,1.556.091,2.92-.333,4.4.419A9.573,9.573,0,0,1-471.791,623.631Z" transform="translate(511.376 -610.723)" fill="#f7aea4"/>
          <path id="Path_103" data-name="Path 103" d="M-499.207,619.025c-.046-.086.086-.223.021-.3a3.924,3.924,0,0,0-1.729-1.121,17.023,17.023,0,0,0-3.649,3.088,5.852,5.852,0,0,1-.644.631,2.177,2.177,0,0,0-.7.817,29.7,29.7,0,0,0-1.07,3.834,8.4,8.4,0,0,1-1.626,3.2c-.011.012,0-.009.005-.03a9.071,9.071,0,0,0,.563-2.045,21.088,21.088,0,0,0,.233-2.48c.086-1.872.18-3.865,1.43-5.348a8.34,8.34,0,0,1,3.193-1.909,5.279,5.279,0,0,0,2.8-2.451c.474-1.155.282-2.319,1.127-3.187a1.477,1.477,0,0,1,1.378-.41c.5.084.952.547,1.442.7A70.635,70.635,0,0,0-499.207,619.025Z" transform="translate(513.542 -610.28)" fill="#ed6d67"/>
          <path id="Path_104" data-name="Path 104" d="M-500.06,615.657c-.423,3.99-.991,7.979-1.1,11.992a9.01,9.01,0,0,1-1.533.859,8.511,8.511,0,0,0,.132-.947c.028-.453.078-1.064.169-1.615.358-2.2.822-4.441,1.357-6.628C-500.741,618.1-500.428,616.86-500.06,615.657Z" transform="translate(518.169 -606.862)" fill="#ed6d67"/>
          <path id="Path_105" data-name="Path 105" d="M-490.353,613.714c-.811.567-1.551,1.173-2.371,1.7a37.783,37.783,0,0,1-1.948,5.44c-.462-.33-1.316-.342-1.555.025a2.822,2.822,0,0,0-.3.711,33.051,33.051,0,0,0-2.016,5.694,6.314,6.314,0,0,1-.982,2.357,1.694,1.694,0,0,1-.635.5c-.125.021-.055-.214-.037-.3a64.927,64.927,0,0,1,4.316-13.888c.578-1.344,2.173-2.116,3.284-2.893a2.01,2.01,0,0,1,1.317-.123C-490.925,612.979-490.719,613.612-490.353,613.714Z" transform="translate(520.095 -609.031)" fill="#ed6d67"/>
          <path id="Path_106" data-name="Path 106" d="M-482.816,619.4c.127.223.037.184.032.237-.271,2.51-2.248,4.36-4.284,5.4s-3.547.078-5.257-.8c-.3-.155-.5-.455-.711-.54s-.513-.627-.567-.549c-.471.7-.927,1.67-1.43,2.46-.169.266-.193.538-.39.841a3.334,3.334,0,0,1-.9.9,1.762,1.762,0,0,1-1.007.276,4.576,4.576,0,0,0,1.813-2.569,41.966,41.966,0,0,1,4.972-8.983c2.651-.094,4.63,1.1,6.733,2.531A4.171,4.171,0,0,1-482.816,619.4Z" transform="translate(522.367 -606.542)" fill="#ed6d67"/>
        </g>
      </g>
      <g id="Group_22" data-name="Group 22" transform="translate(5.84 117.677)">
        <path id="Path_107" data-name="Path 107" d="M-419.089,653.648l-.508,5.215-137.325-2.3L-584.01,589.8l2.42-4.318,107.831.254,13.343,63.829Z" transform="translate(586.49 -583.514)" fill="#493e77"/>
        <path id="Path_108" data-name="Path 108" d="M-584.01,589.809l108.467-1.017,1.78-3.052-107.831-.254Z" transform="translate(586.49 -583.514)" fill="#73659f"/>
        <path id="Path_109" data-name="Path 109" d="M-430.981,653.536l-.508,5.215-137.325-2.3,94.1-1.9-.254-3.571-12.461-62.3,1.778-3.048,13.343,63.829Z" transform="translate(598.382 -583.403)" fill="#2e2850"/>
        <path id="Path_110" data-name="Path 110" d="M-546.081,613.629c3.651.226,13.04.08,12.824-4.526-.244-5.245-14.553-2.9-17.514-2.4-2.467.413-4.906,2.922-2.535,5.039,1.624,1.449,4.687,1.686,6.754,1.856C-546.409,613.608-546.252,613.619-546.081,613.629Z" transform="translate(609.764 -567.656)" fill="#5c5091"/>
        <path id="Path_111" data-name="Path 111" d="M-552.73,610.276l.089.016a2.751,2.751,0,0,0,1.341-.216c3.378-1.193,7.027-1.931,10.5-2.877.515-.141,1.057-.676.274-1a1.459,1.459,0,0,0-.583-.08c-1.054.016-2.08.125-3.141.127a37.648,37.648,0,0,0-6.346.553,5.111,5.111,0,0,0-1.909.619C-553.306,607.93-554.2,609.95-552.73,610.276Z" transform="translate(610.356 -567.366)" fill="#8b7dc1"/>
        <path id="Path_112" data-name="Path 112" d="M-555.833,657.427l-27.089-66.753,2.416-4.323,107.835.255,9.151,43.17-8.583-45.4-109.866.191-3.433,5.913Z" transform="translate(585.401 -584.38)" fill="#dedef0"/>
      </g>
      <g id="Group_23" data-name="Group 23" transform="translate(55.72 304.121)">
        <path id="Path_113" data-name="Path 113" d="M-502.458,713.957c-.134,7.426-7.4,11.849-9.159,18.662a11.94,11.94,0,0,1-.941,2.957,3.6,3.6,0,0,1-.941,1.121c-.328.255-.792.374-1.061.672a6.633,6.633,0,0,0-.807,2.571,15.874,15.874,0,0,0-.628,7.036,5.7,5.7,0,0,1-2.419,5.678,5.771,5.771,0,0,1-6.216-.044,4.728,4.728,0,0,1-3.69,2.212,5.684,5.684,0,0,1-4.364-1.779c-1.972,1.36-5.767,1.152-7.739-.194-.15-.822-.433-1.583-.583-2.344a4.222,4.222,0,0,1-.045-1.988c.462-1.9,2.21-4.706,2.674-6.6-.105.119-.208.225-.314.33-1.688,1.733-3.615,3.093-5.095,5a9.123,9.123,0,0,1-5.156,3.721c-3.123.075-5.886-.12-7.336-2.868a7.491,7.491,0,0,1-.838-6.05v-.016c.075-.239.15-.478.241-.731a29.227,29.227,0,0,0,7.006-5.469c-.581-1.972.255-4.02,1.3-5.8,2.166-.522,4.617-1.465,6.783-2,6.275-7.68,11.728-15.092,17.719-20.934,1.166-2.973,2.346-5.947,3.512-8.919q1.815-4.6,3.631-9.206a22.122,22.122,0,0,1,7.5,1.3c.6.208,1.18.417,1.735.656a5.5,5.5,0,0,1,.12,1.166.141.141,0,0,0,.014.075c.194,1.733.522,3.451.866,5.17.239,1.135.164,2.316.344,3.467a13.808,13.808,0,0,0,.464,1.927,36.653,36.653,0,0,0,1.4,3.676C-503.474,708.817-502.4,711.3-502.458,713.957Z" transform="translate(557.42 -688.968)" fill="#f7aea4"/>
        <path id="Path_114" data-name="Path 114" d="M-509.664,712.55c-.134,7.426-7.4,11.849-9.159,18.662a11.944,11.944,0,0,1-.941,2.957,3.6,3.6,0,0,1-.941,1.121c-.328.255-.792.374-1.061.672a6.631,6.631,0,0,0-.808,2.571,15.877,15.877,0,0,0-.627,7.036,5.7,5.7,0,0,1-2.419,5.678,5.77,5.77,0,0,1-6.216-.044,4.727,4.727,0,0,1-3.69,2.212,5.684,5.684,0,0,1-4.364-1.779c-1.972,1.36-5.767,1.15-7.738-.2-.15-.822-.433-1.583-.583-2.346a28,28,0,0,0,6.722.451c1.152-2.257,2.287-4.512,3.437-6.769-.7,2.3-1.03,4.736-1.733,7.052a9.492,9.492,0,0,0,5.453-.538c.688-2.4,1.391-4.8,2.077-7.2-.178,2.077.358,4.512.164,6.589a3.66,3.66,0,0,0,3.587.733,4.269,4.269,0,0,0,2.257-2.2A19.739,19.739,0,0,0-524.143,740c.658-4.154,1.016-8.427,2.69-12.281,1.105-2.526,2.749-4.8,3.735-7.366.988-2.585,1.69-6.113.075-8.353a3.72,3.72,0,0,0,2.346-2.763,10.731,10.731,0,0,0,.061-3.781c-.374-3.824-.763-7.649-1.135-11.475a3.8,3.8,0,0,1,1.613-3.212c.194,1.733.522,3.451.866,5.17.239,1.135.164,2.316.344,3.467a13.8,13.8,0,0,0,.464,1.927,36.665,36.665,0,0,0,1.4,3.676C-510.68,707.411-509.6,709.89-509.664,712.55Z" transform="translate(564.627 -687.561)" fill="#ed6d67"/>
        <path id="Path_115" data-name="Path 115" d="M-537.107,714.435a62.7,62.7,0,0,1-1.583,7.876c-1.688,1.733-3.615,3.093-5.095,5a9.122,9.122,0,0,1-5.156,3.72c-3.123.075-5.886-.12-7.336-2.868a7.491,7.491,0,0,1-.838-6.05,9.2,9.2,0,0,0,3.781,3.735,9.189,9.189,0,0,0,5.558.986c2.824-.389,4.587-2.81,6.649-4.781a2.349,2.349,0,0,0,.045-.433c.03-.3.059-.6.089-.881.075-.583.15-1.166.269-1.749a20.616,20.616,0,0,1,.761-2.809,1.645,1.645,0,0,1,.688-.7A6.645,6.645,0,0,1-537.107,714.435Z" transform="translate(557.42 -669.037)" fill="#ed6d67"/>
        <path id="Path_116" data-name="Path 116" d="M-544.98,721.889a21.682,21.682,0,0,1-6.77-4.77,9.815,9.815,0,0,1,.927-3.064,31.9,31.9,0,0,1,5.681,2.228,2.334,2.334,0,0,1,1.079.863,2.436,2.436,0,0,1,.137,1.431C-544.051,719.732-544.849,720.734-544.98,721.889Z" transform="translate(561.858 -669.335)" fill="#ed6d67"/>
        <path id="Path_117" data-name="Path 117" d="M-540.162,716.086a2.783,2.783,0,0,1-1.865.938,2.461,2.461,0,0,1-.854-.25,12.156,12.156,0,0,1-1.656-.895,8.267,8.267,0,0,0-.807,1.736,2.745,2.745,0,0,0,.307,1.861,3.02,3.02,0,0,0,1.346,1.075,2.024,2.024,0,0,0,1.64.155,2.2,2.2,0,0,0,.936-1.034A12.079,12.079,0,0,0-540.162,716.086Z" transform="translate(566.839 -667.907)" fill="#ed6d67"/>
        <path id="Path_118" data-name="Path 118" d="M-542.129,719.02a1.735,1.735,0,0,0,.241,1.175,1.824,1.824,0,0,0,.847.5,2.169,2.169,0,0,0,1.381.189,2.029,2.029,0,0,0,.936-.807,14.157,14.157,0,0,0,1.248-2.036.717.717,0,0,0,.105-.546c-.069-.2-.294-.3-.5-.373q-.786-.294-1.576-.585a4.983,4.983,0,0,0-1.487-.444c-.733-.023-.922.578-1.023,1.193A15.273,15.273,0,0,0-542.129,719.02Z" transform="translate(569.382 -667.736)" fill="#ed6d67"/>
        <path id="Path_119" data-name="Path 119" d="M-538.365,719.837a1.689,1.689,0,0,0,.333.916,1.814,1.814,0,0,0,1.476.365,8.373,8.373,0,0,0,1.8-.223,2.809,2.809,0,0,0,1.515-.947,2.825,2.825,0,0,0,.5-1.781,8.448,8.448,0,0,0-.333-1.852c.016.062-.66.351-.733.382a5.217,5.217,0,0,1-.8.257,5.3,5.3,0,0,1-1.683.111,5.185,5.185,0,0,1-.827-.146,3.583,3.583,0,0,0-.738-.2c-.5-.021-.674.4-.676.832A15.557,15.557,0,0,0-538.365,719.837Z" transform="translate(572.205 -667.565)" fill="#ed6d67"/>
        <path id="Path_120" data-name="Path 120" d="M-523.844,701.854a23.17,23.17,0,0,1-5.558-.6,23.538,23.538,0,0,1-4.751-1.644,11.379,11.379,0,0,1-2.585-1.433q1.815-4.6,3.631-9.206a22.122,22.122,0,0,1,7.5,1.3Q-524.733,696.079-523.844,701.854Z" transform="translate(573.607 -688.968)" fill="#ed6d67"/>
      </g>
      <path id="Path_121" data-name="Path 121" d="M-424.026,633.487c-1.449,6.574-3.346,11.027-5.184,17.481-2.077,7.321-8.009,12.641-15.315,14.762A69.9,69.9,0,0,1-469,667.792a9.115,9.115,0,0,1-1.271,4.079c-1.269-.508-2.688-1.269-3.974-1.777.045,1.613.045,3.227-.03,4.84a28.459,28.459,0,0,1-1.913,9.353c-2.763,6.664-8.7,11.222-13.58,16.242-5.394,5.573-11.536,8.979-15.464,17.391-5.214,10.667-9.8,17.527-13.612,27.447,0,.866.014,2,.014,2.913v.18a22.976,22.976,0,0,1-19.6-4.109c.508-.941,2.166-1.733,2.182-2.793.731-39.207,14.9-78.233,36.963-110.656,2.212-3.243,11.983-5.573,11.983-5.573,16.691-.747,31.184,3.243,46.915,8.666q.583.2,1.166.4c1.972.688,3.376,1.69,5.394,2.182A61.268,61.268,0,0,0-424.026,633.487Z" transform="translate(628.002 -434.724)" fill="#0c458f"/>
      <path id="Path_122" data-name="Path 122" d="M-431.729,629.866c-1.449,6.574-3.346,11.027-5.184,17.481-2.077,7.321-8.009,12.641-15.315,14.762a69.9,69.9,0,0,1-24.474,2.063,9.115,9.115,0,0,1-1.271,4.079c-1.269-.508-2.688-1.269-3.974-1.777.045,1.613.045,3.227-.03,4.84a28.459,28.459,0,0,1-1.913,9.354c-2.763,6.664-8.7,11.222-13.58,16.242-5.394,5.573-11.536,8.979-15.464,17.391-5.214,10.667-9.8,17.527-13.612,27.447,0,.866.014,2,.014,2.913a16.9,16.9,0,0,1-2.046-7.619c-.15-4.6,1.226-9.115,2.81-13.432a108.562,108.562,0,0,1,17.138-30.779c7.5-9.295,23.994-17.063,22.053-28.852-.9-5.394-2.346-11.011-5.125-15.717,3.437,2.688,6.858,5.392,10.295,8.082-.21-3.959-1-8.277-3.064-11.653,1.973,2.21,4.109,4.107,6.082,6.319,6.245.792,12.88.807,17.661-3.3a47.2,47.2,0,0,0,12.639-17.333q.583.2,1.166.4c1.972.688,3.376,1.69,5.394,2.182A61.268,61.268,0,0,0-431.729,629.866Z" transform="translate(635.704 -431.103)" fill="#0a3673"/>
    </g>
    <path id="Path_123" data-name="Path 123" d="M-412.191,692.22a44.689,44.689,0,0,0,6.8,10.548c-.642.956-1.269,1.9-1.9,2.884-.166-.314-.314-.644-.464-.957-.166-.328-.33-.672-.494-1.016-.927-2.016-1.763-4.093-2.51-6.2-.344-1.016-.672-2.047-.986-3.079-.194-.658-.389-1.3-.553-1.972-.105-.344-.194-.7-.285-1.061C-412.459,691.651-412.325,691.935-412.191,692.22Z" transform="translate(212.158 177.159)" fill="#db7318"/>
    <g id="Group_29" data-name="Group 29" transform="translate(-271.429 545.361)">
      <g id="Group_25" data-name="Group 25" transform="translate(112.289 108.675)">
        <path id="Path_124" data-name="Path 124" d="M-336.749,617.58c-7-4.047-13.969-8.4-20.926-12.6-1.3-.786-2.758-1.3-3.38-2.792a13.759,13.759,0,0,1-.866-4.87,18.6,18.6,0,0,1,2.337-9.956c1.351-2.348,3.2-4.205,5.92-4.672a9.119,9.119,0,0,1,6.435,1.749A20.755,20.755,0,0,1-340.7,591.2c1.745,2.8,3.654,5.17,4.578,8.535s.713,6.07.364,10.168C-335.832,610.747-337.2,616.074-336.749,617.58Z" transform="translate(410.941 -562.01)" fill="#5b7c1e"/>
        <path id="Path_125" data-name="Path 125" d="M-314.082,609.626a53.783,53.783,0,0,0-12.774-1.014,97.1,97.1,0,0,0-2.59-12.4,15.545,15.545,0,0,1-.228,4.093c-.112,1.537-.162,2.84-.251,4.3s-.159,2.838-.246,4.284a75.572,75.572,0,0,0-10.683,2.178c-.576.159-1.15.337-1.722.506a62.21,62.21,0,0,0-2.686-13.47c-.351,4.929-.7,9.858-1.007,14.791-2.039.774-4.1,1.579-6.079,2.474-3.394,1.533-6.646,3.248-9.865,5.1a73.925,73.925,0,0,1-.016-14.887,98.069,98.069,0,0,0-1.49,15.794c-1.7,1.068-2.751,2.321-4.669,2.961-1.46.487,2.312-.738-.822.262s-11.006,7.393-13.889,11.273a21.289,21.289,0,0,1-4.26-7.936,61.185,61.185,0,0,1-.816-28.066c1.622-8.441,4.195-14.748,9.936-20.976l.029-.029c4.043-3.2,7.728-5.494,13-6.61,4.569-.966,9.972-2.011,14.707-.251,3.683,1.369,5.993,5.223,8.835,7.774a52.525,52.525,0,0,1,18.088,1.784c5.9,8.662,8.587,17.481,9.482,27.8C-314.093,609.446-314.089,609.535-314.082,609.626Z" transform="translate(389.422 -571.046)" fill="#95a94d"/>
        <path id="Path_126" data-name="Path 126" d="M-349.583,577.944a75.965,75.965,0,0,0-17.14,14.008,24.283,24.283,0,0,0-5.833,10c-.957,3.81-2.007,7.485-1.423,11.487a9.612,9.612,0,0,0,5.535,7.462,182.339,182.339,0,0,0-14.785,11.562c-1.736-2.681-3.319-4.779-4.143-7.972a61.5,61.5,0,0,1-.808-28.069c1.626-8.444,4.2-14.737,9.928-20.985a41.289,41.289,0,0,0-2.619,6.649,32.118,32.118,0,0,0,1.032,19.878c1.214-2.85,3.724-4.769,4.61-7.813s-.232-6.111-1.1-9.1c.988,2.173,2.027,4.364,3.046,6.537q3.738-3.388,7.462-6.792a32,32,0,0,1-1.487-7.517l3.8,6.947C-360.378,580.915-353.815,579.5-349.583,577.944Z" transform="translate(389.424 -567.608)" fill="#5b7c1e"/>
        <path id="Path_127" data-name="Path 127" d="M-343.17,583.105c-1.4-2.542-2.6-4.5-5.571-5.2a32.852,32.852,0,0,0-11-.444c-.483.048-1.011.235-1.134.693a1.165,1.165,0,0,0,.5,1.118,17.176,17.176,0,0,0,7.854,4.018c3.624.97,7.163,2.335,10.7,3.61a20.3,20.3,0,0,1-1.255-3.606A.817.817,0,0,0-343.17,583.105Z" transform="translate(411.74 -566.222)" fill="#dae7aa"/>
        <path id="Path_128" data-name="Path 128" d="M-366.189,571.484a10.615,10.615,0,0,1,8.658,5.533c-1.877-.961-5.392-.456-7.282-.624-2.779-.25-8.624-.36-9.961-2.624-.351-.6.424-.608.8-.722C-371.46,572.285-369.044,571.254-366.189,571.484Z" transform="translate(400.817 -570.729)" fill="#dae7aa"/>
      </g>
      <path id="Path_129" data-name="Path 129" d="M-341.892,731.955a63.976,63.976,0,0,1-7.033,9.8c1.708,4.214,5.678,10.445,9.052,13.523-.376.642-1.034,3.032-1.41,3.66-23.846,5.589-49.67,4.556-74.049.808-.526-1.016-.711-2.885-1.237-3.9,3.061-4.856,6.2-9.532,9.248-14.388A68.253,68.253,0,0,1-418.2,726.1a70.614,70.614,0,0,1-5.252-13.208c-.112-.358-.209-.716-.3-1.075a67.847,67.847,0,0,1-.644-33.633c28.2-10.773,59.257-12.73,88.567-4.228l.5.134a74.138,74.138,0,0,1-2.549,49.875A68.273,68.273,0,0,1-341.892,731.955Z" transform="translate(472.917 -385.979)" fill="#0f55fb"/>
      <path id="Path_130" data-name="Path 130" d="M-350,739.43c1.708,4.214,5.678,10.445,9.052,13.523-.376.642-1.034,3.032-1.41,3.66-23.846,5.589-49.67,4.556-74.049.808-.526-1.016-.711-2.885-1.237-3.9.246-.388.494-.777.74-1.15a135.991,135.991,0,0,0,62.886.747c-1.629-3.243-3.243-6.485-4.874-9.728-16.119,4.139-33.952,2-49.955-3.555.16-.225.3-.463.451-.7a69.708,69.708,0,0,1-16.438-29.643,46.187,46.187,0,0,0,26.454,24.369,44.738,44.738,0,0,0,36.2-3.5,15.542,15.542,0,0,0,4.159-2.9c.41-.478.788-1.016,1.182-1.524.758-.986,1.471-2.018,2.153-3.063a57.584,57.584,0,0,0,6.5-13.462,60.61,60.61,0,0,0,2.177-29.807c-.364-1.943-.818-3.856-1.362-5.753,3.209-1.779,6.822-1.882,10.462-2.226l.5.134C-329.365,694.965-334.278,721.4-350,739.43Z" transform="translate(473.996 -383.652)" fill="#0b50d8"/>
      <path id="Path_131" data-name="Path 131" d="M-339.391,675.975a139.168,139.168,0,0,1-83.87,2.654C-396.57,669.451-358.325,666.992-339.391,675.975Z" transform="translate(475.228 -384.645)" fill="#945c52"/>
      <path id="Path_132" data-name="Path 132" d="M-339.1,711.342c-.328.806-.686,1.6-1.046,2.375-.187.389-.358.763-.545,1.135-.159.33-.317.658-.49.971-.258.538-.533,1.061-.822,1.583-.362.658-.724,1.3-1.1,1.943a70.373,70.373,0,0,0-7.66-14.09c-.613-.911-1.273-1.792-1.963-2.674-3.785,6.081-7.633,12.013-11.042,18.274-.8,1.433-1.546,2.9-2.28,4.376-.583-.836-1.166-1.688-1.735-2.538-4.842-7.157-9.329-14.6-14.272-21.68A195.183,195.183,0,0,0-395.96,722.04a152.565,152.565,0,0,0-18.306-16.2c-1.21,1.66-2.285,3.212-3.3,4.767-.624.956-1.234,1.9-1.843,2.883-.171-.312-.326-.642-.481-.956-.171-.328-.34-.672-.512-1.016-.964-2.016-1.84-4.093-2.626-6.2-.364-1.016-.711-2.046-1.045-3.079-.207-.658-.412-1.3-.59-1.972a1.312,1.312,0,0,0,.1-.208,26.372,26.372,0,0,1,9.526-11.461,88.461,88.461,0,0,1,17.481,22.262c2.622-9.951,8.065-18.527,14.96-26.1,7.23,7.9,12.787,18.2,16.233,28.3,1.628-9.621,6.417-17.973,12.766-25.31a55.229,55.229,0,0,1,6.442,7.41A51.5,51.5,0,0,1-339.1,711.342Z" transform="translate(474.129 -373.373)" fill="#f7a628"/>
      <path id="Path_133" data-name="Path 133" d="M-392.756,706.849a39.248,39.248,0,0,0,4.014-1.838c-.8,1.433-1.546,2.9-2.28,4.376C-391.6,708.551-392.187,707.7-392.756,706.849Z" transform="translate(499.103 -357.525)" fill="#db7318"/>
      <path id="Path_134" data-name="Path 134" d="M-371.545,706.777c-.328.806-.686,1.6-1.046,2.375-.187.389-.358.763-.545,1.135-.159.33-.317.658-.49.971-.258.538-.533,1.061-.822,1.583-.362.658-.724,1.3-1.1,1.943a70.373,70.373,0,0,0-7.66-14.09,54.906,54.906,0,0,0,2.44-6.125c.439-1.316.832-2.629,1.166-3.975A51.5,51.5,0,0,1-371.545,706.777Z" transform="translate(506.574 -368.808)" fill="#db7318"/>
      <path id="Path_135" data-name="Path 135" d="M-411.986,711.339q-.053-1.709-.109-3.414l-.009-.253c-.248-7.664-.23-15.229-.294-22.864a26.594,26.594,0,0,0-.118-3.535,1.289,1.289,0,0,0-.4-.84,3.306,3.306,0,0,0-.982-.517c-1.531-.663-3.073-1.3-4.61-1.95a4.548,4.548,0,0,0-2.724-.529,2.967,2.967,0,0,0-2.03,2.53c-1.553,10.218,2.5,23.183,7.717,31.936.627,1.055,1.843,2.241,2.866,1.6C-412.006,713.078-411.959,712.135-411.986,711.339Z" transform="translate(474.968 -379.154)" fill="#e8def6"/>
      <g id="Group_26" data-name="Group 26" transform="translate(68.357 46.267)">
        <path id="Path_136" data-name="Path 136" d="M-392.167,783.225a1316.25,1316.25,0,0,0-21.9-247.188c1.938,2.841,4.4,6.2,6.341,9.042,14.2,82.777,17.37,163.564,18.129,238.555C-390.208,782.847-391.556,784.011-392.167,783.225Z" transform="translate(414.067 -536.037)" fill="#5b7c1e"/>
      </g>
      <path id="Path_137" data-name="Path 137" d="M-401.082,748.783a406.8,406.8,0,0,1,42.131-165.418c1.1-.686,1,.194,1.868,1.187C-380.558,636.641-396.606,691.511-401.082,748.783Z" transform="translate(492.586 -452.92)" fill="#5b7c1e"/>
      <path id="Path_138" data-name="Path 138" d="M-390.51,716.179a346.26,346.26,0,0,0-19-80.465c-2.105-5.74-5.193-8.548-7.71-14.126,1.185,0,2.417.237,3.6.237,14.8,29.392,20.6,62.674,25.353,95.074C-389.168,717.031-389.61,716.048-390.51,716.179Z" transform="translate(479.954 -422.814)" fill="#5b7c1e"/>
      <g id="Group_27" data-name="Group 27">
        <path id="Path_139" data-name="Path 139" d="M-389.552,547.914c-6.421,3.758-12.422,7.425-17.586,12.817a73.962,73.962,0,0,0-5.339,6.694,116.86,116.86,0,0,0-11.908-10.657c3.1,5.159,5.954,10.418,8.61,15.812a86.837,86.837,0,0,0-4.751,9.719c-3.683-3.891-7.514-7.6-11.495-11.188q3.99,9.83,8.714,19.317a101.458,101.458,0,0,0-2.906,15.471,68.976,68.976,0,0,1-8-7.006c-3.592-7.82-6.852-15.386-8.318-23.878.6,5.164,1,10.355,1.606,15.511-5.7-9.66-9.632-19.49-10.177-30.688a88.727,88.727,0,0,1,2.868-25.893c2.112-8.494,6.667-16.131,15.381-18.593,6.66-1.881,12.9.857,18.825,3.833,7.02,3.522,13.113,8.339,18.9,13.612a22.208,22.208,0,0,1,5.307,6.861A9.952,9.952,0,0,1-389.552,547.914Z" transform="translate(453.375 -506.443)" fill="#5b7c1e"/>
        <path id="Path_140" data-name="Path 140" d="M-366.444,556.077c-2.562,9.828-7.364,19.042-11.737,28.2-1.05-2.1-2.323-4.031-3.5-6.045-5.09-8.714-9.783-17.388-16.7-24.829-1-1.068-2.178-2.121-3.214-3.111a123.445,123.445,0,0,0-23.723-17.445c-3-1.642-7.145-5.077-10.468-5.578a3.694,3.694,0,0,0-4.132,2.034c-8.241,14.914-9.856,29.945-6.8,45.45a100.462,100.462,0,0,0,4.53,15.675c-1.066-2.385-2.128-4.74-3.177-7.111-3.7-8.507-6.9-17.087-7.043-26.675a55.54,55.54,0,0,1,4.662-23.536A74.5,74.5,0,0,1-436.576,515.4c10.575-.155,20.9-.319,31.38,1.262a69.929,69.929,0,0,1,24.044-6.578c1.546.975,3.03,1.956,4.435,3.032a29.51,29.51,0,0,1,5.507,5.191,23.42,23.42,0,0,1,2.672,4.091C-362.864,533.493-363.361,544.249-366.444,556.077Z" transform="translate(452.413 -510.083)" fill="#95a94d"/>
        <path id="Path_141" data-name="Path 141" d="M-386.607,552.452a177.256,177.256,0,0,1-11.837,28.178c-1.027-2.095-2.316-4.022-3.492-6.038-5.093-8.715-9.774-17.359-16.712-24.809-1-1.075-2.15-2.061-3.189-3.1a56.324,56.324,0,0,0,13.386,5.489c-1.182-.642-1.563-3.307-2.1-4.191a53.8,53.8,0,0,0-4.464-5.993,76.076,76.076,0,0,0-11.512-11.352,99.175,99.175,0,0,0,13.94,8.209,70.576,70.576,0,0,0-11.844-24.187c4.13,4.066,8.749,11.537,13.9,5.182,1.157-1.43,1.747-3.688,3.8-4.22-1.51.856-2.581,4.793-3.036,5.966a28.371,28.371,0,0,0-2.148,7.1c-.6,5.295,1.194,8.844,3.565,13.377.255.487.519,1.025,1.105,1.175,1.178.3,1.982-.72,2.535-1.685,2.077-3.635,4.187-7.329,6.223-10.979-1.61,5.548-3.911,11.084-4.33,16.9-.521,7.225,3.629,9.544,10.327,7.958C-390.443,554.941-388.418,553.538-386.607,552.452Z" transform="translate(472.669 -506.505)" fill="#5b7c1e"/>
        <path id="Path_142" data-name="Path 142" d="M-426.242,520.7q-7.88-2.845-15.759-5.692c8.794-1.275,18.03-1.271,26.643,1.171C-418.506,518.882-422.281,522.132-426.242,520.7Z" transform="translate(460.561 -506.888)" fill="#dae7aa"/>
        <path id="Path_143" data-name="Path 143" d="M-403.99,510.847c-3.032,4.352-8.049,6.8-12.853,9.065a8.049,8.049,0,0,1-2.369.829,2.8,2.8,0,0,1-2.357-.692,2.877,2.877,0,0,1-.72-1.824c-.043-.5-.146-1.269.234-1.644a8.428,8.428,0,0,1,1.822-1.057q1.037-.562,2.107-1.063a39.689,39.689,0,0,1,8.931-2.929q1.308-.262,2.633-.435.65-.086,1.3-.15C-405.081,510.933-404.072,510.966-403.99,510.847Z" transform="translate(475.953 -509.485)" fill="#dae7aa"/>
      </g>
      <g id="Group_28" data-name="Group 28" transform="translate(27.709 177.267)">
        <path id="Path_144" data-name="Path 144" d="M-395.873,634.2c-4.189,2.451-8.1,4.842-11.469,8.359a48.5,48.5,0,0,0-3.482,4.366,76.026,76.026,0,0,0-7.767-6.951c2.02,3.366,3.883,6.8,5.615,10.313a57.053,57.053,0,0,0-3.1,6.337c-2.4-2.537-4.9-4.958-7.5-7.3q2.6,6.412,5.683,12.6a66,66,0,0,0-1.895,10.09A44.709,44.709,0,0,1-425,667.442c-2.342-5.1-4.469-10.033-5.425-15.571.392,3.367.651,6.753,1.046,10.115-3.719-6.3-6.28-12.71-6.635-20.014a57.761,57.761,0,0,1,1.87-16.885c1.376-5.54,4.348-10.519,10.031-12.126,4.342-1.226,8.41.558,12.275,2.5a55.419,55.419,0,0,1,12.327,8.878,14.5,14.5,0,0,1,3.46,4.475A6.5,6.5,0,0,1-395.873,634.2Z" transform="translate(437.497 -607.15)" fill="#5b7c1e"/>
        <path id="Path_145" data-name="Path 145" d="M-380.8,639.519c-1.67,6.41-4.8,12.42-7.655,18.393-.685-1.369-1.513-2.628-2.28-3.942-3.319-5.683-6.38-11.339-10.892-16.192-.652-.7-1.419-1.383-2.095-2.029A80.4,80.4,0,0,0-419.2,624.373c-1.954-1.071-4.66-3.31-6.828-3.638a2.408,2.408,0,0,0-2.694,1.326,42.135,42.135,0,0,0-4.435,29.64,65.547,65.547,0,0,0,2.954,10.223c-.693-1.556-1.387-3.091-2.071-4.637-2.414-5.548-4.5-11.145-4.594-17.4a36.239,36.239,0,0,1,3.041-15.349,48.569,48.569,0,0,1,7.282-11.552c6.9-.1,13.634-.208,20.465.824a45.625,45.625,0,0,1,15.68-4.291c1.007.636,1.975,1.276,2.893,1.979a19.239,19.239,0,0,1,3.59,3.385,15.256,15.256,0,0,1,1.743,2.667C-378.468,624.792-378.792,631.807-380.8,639.519Z" transform="translate(436.869 -609.524)" fill="#95a94d"/>
        <path id="Path_146" data-name="Path 146" d="M-393.953,637.156a115.687,115.687,0,0,1-7.719,18.376c-.67-1.366-1.51-2.622-2.278-3.936-3.321-5.685-6.375-11.322-10.9-16.181-.652-.7-1.4-1.342-2.08-2.023a36.788,36.788,0,0,0,8.73,3.579c-.77-.419-1.018-2.157-1.371-2.733a35.169,35.169,0,0,0-2.911-3.909,49.7,49.7,0,0,0-7.508-7.4,64.634,64.634,0,0,0,9.091,5.353,46.036,46.036,0,0,0-7.724-15.773c2.694,2.653,5.706,7.524,9.063,3.38.756-.932,1.139-2.4,2.48-2.75-.986.556-1.683,3.125-1.981,3.89a18.467,18.467,0,0,0-1.4,4.63c-.394,3.453.777,5.767,2.325,8.722.166.319.339.67.72.768.768.2,1.292-.471,1.652-1.1,1.355-2.371,2.731-4.779,4.059-7.159-1.05,3.617-2.551,7.229-2.824,11.02-.339,4.712,2.367,6.225,6.735,5.189A14.789,14.789,0,0,0-393.953,637.156Z" transform="translate(450.079 -607.19)" fill="#5b7c1e"/>
        <path id="Path_147" data-name="Path 147" d="M-419.8,616.45q-5.139-1.859-10.277-3.713a41.989,41.989,0,0,1,17.374.765C-414.756,615.262-417.218,617.382-419.8,616.45Z" transform="translate(442.184 -607.44)" fill="#dae7aa"/>
        <path id="Path_148" data-name="Path 148" d="M-405.289,610.023c-1.979,2.836-5.25,4.432-8.382,5.911a5.251,5.251,0,0,1-1.546.54,1.829,1.829,0,0,1-1.537-.451,1.893,1.893,0,0,1-.471-1.189c-.027-.325-.095-.829.153-1.071a5.426,5.426,0,0,1,1.189-.69c.451-.244.909-.476,1.374-.692a25.807,25.807,0,0,1,5.824-1.911q.853-.171,1.717-.284c.283-.037.567-.069.85-.1A3.252,3.252,0,0,0-405.289,610.023Z" transform="translate(452.221 -609.133)" fill="#dae7aa"/>
      </g>
    </g>
    <g id="Group_30" data-name="Group 30" transform="translate(-346.266 465.007)">
      <path id="Path_149" data-name="Path 149" d="M-491.507,508.614c-1.235-10.655,1.057-21.682,7.968-29.365,23.814-26.472,83.087-13.295,80.558,29.137-1.157,19.411-16.042,39.842-34.143,46.251-23.369,8.273-45.013-14.737-52.176-36.116A49.083,49.083,0,0,1-491.507,508.614Z" transform="translate(496.404 -464.561)" fill="#bb8f90"/>
      <path id="Path_150" data-name="Path 150" d="M-494.075,508.043c-1.235-10.655,1.059-21.682,7.968-29.365,23.816-26.472,83.087-13.295,80.557,29.139-1.157,19.409-16.042,39.842-34.141,46.249-23.37,8.273-45.015-14.735-52.178-36.115A49.1,49.1,0,0,1-494.075,508.043Z" transform="translate(494.394 -465.007)" fill="#bb8f90"/>
      <path id="Path_151" data-name="Path 151" d="M-451.54,549.342c-17.142,0-32.394-17.921-38.045-34.783a44.463,44.463,0,0,1-2-9c-1.191-10.268,1.3-19.689,6.849-25.852,6.965-7.744,18.09-12.186,30.519-12.186,13.183,0,25.723,4.958,33.548,13.263,6.341,6.731,9.263,15.074,8.683,24.8-1.05,17.607-15.029,36.58-31.162,42.291A25.1,25.1,0,0,1-451.54,549.342Z" transform="translate(496.361 -463.039)" fill="#f9dec3"/>
      <path id="Path_152" data-name="Path 152" d="M-445.306,474.85l-13.733,31.535-25.177,7.884,27.466-3.815Z" transform="translate(502.359 -457.305)" fill="#bb8f90"/>
      <path id="Path_153" data-name="Path 153" d="M-471.163,468.969l.763,13.224h2.543l.254-13.479Z" transform="translate(512.575 -462.106)" fill="#d5afab"/>
      <path id="Path_154" data-name="Path 154" d="M-443.244,488.474l-13.225.763v2.543l13.479.254Z" transform="translate(524.076 -446.642)" fill="#d5afab"/>
      <path id="Path_155" data-name="Path 155" d="M-488.6,488.474l13.224.763v2.543l-13.479.254Z" transform="translate(498.73 -446.642)" fill="#d5afab"/>
      <path id="Path_156" data-name="Path 156" d="M-471.163,515.894l.763-13.225h2.543l.254,13.479Z" transform="translate(512.575 -435.532)" fill="#d5afab"/>
    </g>
  </g>
</svg>
